<svg width="32" height="32" viewBox="0 0 32 32" fill="none" xmlns="http://www.w3.org/2000/svg">
<circle cx="16" cy="16" r="16" fill="#242246"/>
<path d="M23.9492 10.7969L21.6523 12.9883C20.0898 11.3398 18.332 10.5156 16.3789 10.5156C14.7305 10.5156 13.3398 11.0781 12.207 12.2031C11.082 13.3281 10.5195 14.7148 10.5195 16.3633C10.5195 17.5117 10.7695 18.5312 11.2695 19.4219C11.7695 20.3125 12.4766 21.0117 13.3906 21.5195C14.3047 22.0273 15.3203 22.2812 16.4375 22.2812C17.3906 22.2812 18.2617 22.1055 19.0508 21.7539C19.8398 21.3945 20.707 20.7461 21.6523 19.8086L23.8789 22.1289C22.6055 23.3711 21.4023 24.2344 20.2695 24.7188C19.1367 25.1953 17.8438 25.4336 16.3906 25.4336C13.7109 25.4336 11.5156 24.5859 9.80469 22.8906C8.10156 21.1875 7.25 19.0078 7.25 16.3516C7.25 14.6328 7.63672 13.1055 8.41016 11.7695C9.19141 10.4336 10.3047 9.35938 11.75 8.54688C13.2031 7.73438 14.7656 7.32812 16.4375 7.32812C17.8594 7.32812 19.2266 7.62891 20.5391 8.23047C21.8594 8.83203 22.9961 9.6875 23.9492 10.7969Z" fill="white"/>
</svg>
